My Ghost Story: Caught on Camera
S04E07 - Spirited Phone Call
Original Air Date May 12, 2012

"Spirited Phone Call" - Alexander Majors House Museum, Kansas City, Missouri
"Working Ghouls" - Gypsy Rose Dancing (historic building), Quincy, Massachusetts
"Hide and Go Haunt" - McNutt House, Vicksburg, Mississippi
"Sweet Caroline's Ghost" - Miss Caroline's Bed & Breakfast, St. Augustine, Florida
"Portal to Hell" - (private residence), Bellaire, Ohio

A woman meets an abusive entity from her past; an exotic dancer claims to have hundreds
of clips of orbs flying around her studio; a woman's feels an entity move through her
body; a spirit of a child interacts and plays with guests at a bed and breakfast.

Summary: "A woman encounters an entity who has abused her in the past; hundreds of flying
orbs are seen at a pole dancing studio; and the spirit of a 5-year-old girl interacts with
guests at a Florida bed and breakfast."

Format : AVI
File size : 443 MiB
Duration : 43mn 15s
Overall bit rate : 1 432 Kbps

Video
Format : MPEG-4 Visual
Codec ID : XVID
Bit rate : 1 286 Kbps
Width : 624 pixels
Height : 352 pixels
Display aspect ratio : 16:9
Frame rate : 29.970 fps
Stream size : 398 MiB (90%)
Writing library : XviD 1.2.1 (UTC 2008-12-04)

Audio
Format : MPEG Audio
Codec ID/Hint : MP3
Bit rate mode : Constant
Bit rate : 128 Kbps
Channel(s) : 2 channels
Sampling rate : 44.1 KHz
Compression mode : Lossy
Stream size : 39.6 MiB (9%) 
http://www.shotpix.com/images/86017331448252543271.jpg
 
http://www.shotpix.com/images/94805956014981583969.jpg